# xmcd
#
# Track frame offsets: 
#        150
#        11788
#        25603
#        53305
#        61650
#        71678
#        82313
#        95788
#        107775
#        122453
#        134128
#        147008
#        157690
#        168705
#        178798
#        189438
#        202998
#        214398
#
# Disc length: 3051 seconds
#
# Revision: 2
# Processed by: cddbd v1.5.2PL0 Copyright (c) Steve Scherf et al.
# Submitted via: ExactAudioCopyFreeDBPlugin 1.0
#
DISCID=fd0be912
DTITLE=Smith, Little George - Harmonica Ace
DYEAR=1991
DGENRE=Blues
TTITLE0=Rocking
TTITLE1=Telephone Blues
TTITLE2=Blues in the Dark  (Instr.)
TTITLE3=Have Myself a Ball
TTITLE4=I Found My Baby (alt take)
TTITLE5=Oopin' Doopin' Doopin' {alt take}
TTITLE6=Californian Blues (alt take)
TTITLE7=Hey Mr. Porter (alt take)
TTITLE8=Early One Monday Morning (take 1)
TTITLE9=Rocking {alt take}
TTITLE10=Love Life
TTITLE11=Cross Eyed Suzie Lee
TTITLE12=You Don't Love Me
TTITLE13=I Found My Baby
TTITLE14=Oopin' Doopin' Doopin'
TTITLE15=Californian Blues
TTITLE16=Hey Mr. Porter
TTITLE17=Early One Monday Morning (take 2)
EXTD=dunphuc_hall@hotmail.com\noverwork by Rollin Danny 03.2011
EXTT0=
EXTT1=
EXTT2=
EXTT3=
EXTT4=
EXTT5=
EXTT6=
EXTT7=
EXTT8=
EXTT9=
EXTT10=
EXTT11=
EXTT12=
EXTT13=
EXTT14=
EXTT15=
EXTT16=
EXTT17=
PLAYORDER=
